# xmcd
#
# Track frame offsets:
#	150
#	12782
#	25210
#	37837
#	50415
#	62120
#	74322
#	92057
#	114467
#	128352
#	146515
#	180557
#	195222
#	203677
#	216975
#	230252
#	247985
#	262250
#	277475
#	290760
#	308025
#	326235
#
# Disc length: 4567 seconds
#
# Revision: 1
# Processed by: cddbd v1.5.1PL0 Copyright (c) Steve Scherf et al.
# Submitted via: CDex 1.50Beta5
#
DISCID=4411d516
DTITLE=チェアマン・オブ・ザ・ボード - OUR BROTHERLY LOVE H-D-H Compilation
DYEAR=1995
DGENRE=
TTITLE0=チェアマン・オブ・ザ・ボード/ALL WE NEED IS UNDERSTANDING
TTITLE1=HONEY CONE/WANT ADS
TTITLE2=BROTHERLY LOVE/MAMA’S LITTLE BABY(LOVES LOVIN’)
TTITLE3=チェアマン・オブ・ザ・ボード/WORKING ON A BUILDING OF LOVE
TTITLE4=LOOPROOF/BACKTRACK
TTITLE5=FREDA PAYNE/I SHALL NOT BE MOVED
TTITLE6=パーラメント/LITTLE OLE COUNTRY BOY
TTITLE7=8TH DAY/CHEBA
TTITLE8=POLITICIANS,THE/CHURCH
TTITLE9=チェアマン・オブ・ザ・ボード/LET’S HAVE SOME FUN
TTITLE10=RUTH COPELAND/GIMMIE SHELTER
TTITLE11=GLASS HOUSE/DON’T LET IT RAIN ON ME
TTITLE12=RUTH COPELAND/GIFT OF ME,A
TTITLE13=HONEY CONE/DON’T COUNT YOUR CHICKENS(BEFORE THEY HATCH)
TTITLE14=チェアマン・オブ・ザ・ボード/YOU’VE GOT ME
TTITLE15=FREDA PAYNE/CHERISH WHAT IS DEAR TO YOU(WHILE IT’S NEAR TO YOU
TTITLE16=HI LITES/THAT’S LOVE
TTITLE17=HONEY CONE/IF I CAN’T FLY
TTITLE18=FREDA PAYNE/WE’VE GOTTA FIND A WAY BACK TO LOVE
TTITLE19=エロイーズ・ロウズ/AIN’T IT GOOD FEELING GOOD
TTITLE20=LAMONT DOZIER/WHY CAN’T WE BE LOVERS
TTITLE21=SMITH CONNECTION,THE/UNDER MY WINGS
EXTD=
EXTT0=
EXTT1=
EXTT2=
EXTT3=
EXTT4=
EXTT5=
EXTT6=
EXTT7=
EXTT8=
EXTT9=
EXTT10=
EXTT11=
EXTT12=
EXTT13=
EXTT14=
EXTT15=
EXTT16=
EXTT17=
EXTT18=
EXTT19=
EXTT20=
EXTT21=
PLAYORDER=
